<?xml version="1.0" encoding="UTF-8"?>
<!DOCTYPE svg PUBLIC "-//W3C//DTD SVG 1.1//EN" "http://www.w3.org/Graphics/SVG/1.1/DTD/svg11.dtd">
<svg version="1.1" xmlns="http://www.w3.org/2000/svg" xmlns:xlink="http://www.w3.org/1999/xlink" x="0" y="0" width="288.787" height="268.806" viewBox="0, 0, 288.787, 268.806">
  <g id="Layer_1">
    <path d="M254.622,171.951 C250.841,184.771 252.166,198.308 258.288,210.568 L225.056,188.086 C220.724,169.536 226.471,150.827 240.547,137.685 L282.519,137.853 C268.813,145.695 258.761,157.913 254.622,171.951 M213.474,225.534 C201.501,234.596 193.363,247.302 190.154,261.723 L177.489,224.615 C186.216,206.163 203.578,193.46 224.148,190.523 L256.861,212.652 C241.201,211.591 225.957,216.089 213.474,225.534 M102.706,262.772 L115.811,225.506 C134.465,215.805 156.575,215.872 175.165,225.682 L188,263.288 C163.493,242.522 127.08,242.326 102.706,262.772 M77.122,225.806 C65.443,217.321 51.212,213.527 36.492,214.865 L69.434,191.611 C89.112,194.193 105.534,206.163 113.689,223.975 L100.248,262.195 C97.244,247.337 89.147,234.54 77.122,225.806 M36.867,171.129 C31.987,156.6 21.618,144.738 7.453,137.361 L50.196,137.353 C65.226,150.764 71.715,170.312 67.535,189.87 L67.548,189.873 L34.448,213.237 C40.624,199.72 41.505,184.934 36.867,171.129 M36.997,101.946 C41.929,87.291 41.01,71.515 34.47,57.039 L67.542,80.872 L67.521,80.877 C71.705,100.863 65.209,120.838 50.164,134.534 L9.796,134.535 C22.747,127.282 32.312,115.874 36.997,101.946 M77.206,43.66 C89.182,34.974 97.248,22.112 100.251,7.082 L113.68,46.067 C105.526,64.257 89.112,76.48 69.444,79.118 L34.914,54.234 C50.283,56.079 65.146,52.409 77.206,43.66 M187.985,5.936 L175.147,44.34 C156.57,54.348 134.47,54.417 115.829,44.52 L102.517,5.876 C114.409,16.173 129.408,21.808 145.271,21.808 C161.11,21.808 176.101,16.206 187.985,5.936 M214.75,44.94 C226.994,54.202 241.806,58.619 256.903,57.603 L224.143,80.231 C203.578,77.229 186.222,64.258 177.499,45.413 L190.444,6.689 C193.735,22.022 202.221,35.46 214.75,44.94 M254.701,99.49 C258.896,113.694 268.935,126.063 282.555,134.005 L240.56,134.178 C226.479,120.751 220.734,101.639 225.07,82.689 L258.28,59.753 C252.102,72.374 250.807,86.305 254.701,99.49 M205.461,174.831 C201.53,160.75 206.097,146.931 217.747,137.594 L237.056,137.671 C224.467,150.55 218.916,168.567 222.13,186.107 z M169.957,202.546 L170.026,202.574 C175.985,188.091 188.999,178.797 204.945,177.531 L221.122,188.474 C201.727,192.057 185.341,204.054 176.343,221.256 z M123.689,203.104 L123.845,203.373 C137.722,195.352 154.055,195.609 167.757,203.974 L173.997,222.258 C155.969,213.634 135.101,213.568 117.016,222.083 z M89.153,177.694 C104.168,179.097 116.082,188.16 121.34,202.218 L114.86,220.649 C106.413,204.085 90.935,192.748 72.41,189.513 z M74.612,137.349 C86.457,147.117 90.936,161.635 86.629,176.404 L70.446,187.828 C73.513,169.382 67.33,150.552 53.891,137.353 z M86.615,94.617 C90.93,109.715 86.446,124.554 74.584,134.534 L53.864,134.534 C67.537,120.934 73.614,102.072 70.462,82.977 z M121.33,68.279 C116.075,82.636 104.167,91.892 89.159,93.326 L72.392,81.243 C90.92,77.947 106.403,66.384 114.857,49.485 z M167.739,66.503 C154.049,75.035 137.727,75.297 123.86,67.116 L123.703,67.382 L117.025,47.993 C126.002,52.304 135.661,54.48 145.323,54.48 C155.122,54.48 164.911,52.242 173.986,47.813 z M204.937,93.495 C189.003,92.201 175.997,82.712 170.04,67.928 L169.962,67.959 L176.345,48.867 C185.352,66.417 201.745,78.652 221.144,82.301 z M217.757,134.271 C206.104,124.728 201.539,110.612 205.475,96.223 L222.117,84.73 C218.901,102.642 224.463,121.044 237.069,134.191 z M186.716,162.15 C185.063,152.782 188.161,144.088 195.557,137.505 L214.376,137.58 C204.124,146.859 199.889,159.716 202.741,172.991 z M162.792,181.553 C167.452,172.301 175.733,166.414 186.25,164.884 L202.038,175.564 C187.279,177.584 175.208,186.3 168.926,199.523 z M130.966,182.415 C140.571,177.705 151.021,177.861 160.55,182.859 L166.638,200.697 C153.36,193.561 138.053,193.422 124.656,200.357 z M107.919,164.447 C117.445,166.246 124.793,172.056 128.793,181.026 L122.469,199.012 C116.825,186.265 105.739,177.85 91.892,175.76 z M97.253,137.347 C104.728,144.393 107.524,153.312 105.31,163.218 L89.481,174.391 C92.615,160.504 88.444,147.037 78.035,137.349 z M105.301,108.083 L105.298,108.083 C107.548,118.358 104.797,127.247 97.154,134.534 L78.009,134.534 C88.447,124.644 92.631,110.881 89.493,96.691 z M128.784,89.917 C124.786,99.076 117.443,105.011 107.926,106.85 L91.873,95.283 C105.724,93.155 116.813,84.575 122.465,71.576 z M160.533,88.058 C151.012,93.155 140.576,93.314 130.981,88.512 L124.667,70.18 C131.245,73.653 138.277,75.403 145.31,75.403 C152.596,75.403 159.872,73.533 166.625,69.833 z M186.244,106.406 C175.735,104.842 167.46,98.829 162.801,89.383 L168.928,71.054 C175.219,84.543 187.297,93.43 202.059,95.483 z M195.568,134.362 C188.169,127.634 185.071,118.747 186.728,109.172 L202.729,98.12 C199.875,111.679 204.119,124.811 214.392,134.284 z M176.354,155.141 C175.406,148.396 177.742,142.358 183.198,137.583 L183.085,137.454 L192.606,137.492 C186.271,143.901 183.44,151.942 184.431,160.605 z M158.8,169.855 C162.31,163.151 168.208,159.041 175.945,157.913 L183.738,163.185 C174.232,165.143 166.614,170.595 161.863,178.831 z M135.083,170.708 C142.163,167.368 149.559,167.542 156.577,171.218 L159.581,180.021 C150.611,175.943 140.978,175.806 131.944,179.632 z M118.329,157.099 C125.038,158.63 130.039,162.823 132.896,169.361 L129.773,178.241 C125.627,170.296 118.845,164.95 110.245,162.805 z M110.056,137.344 C115.442,142.598 117.251,148.704 115.572,155.974 L107.77,161.482 C109.192,152.379 106.598,144.128 100.215,137.347 z M115.559,115.476 C117.245,122.915 115.434,129.16 110.035,134.532 L100.127,134.534 C106.571,127.602 109.2,119.17 107.78,109.87 z M132.887,101.83 C130.032,108.504 125.034,112.788 118.332,114.35 L110.229,108.511 C118.833,106.326 125.619,100.877 129.769,92.779 z M156.56,99.944 C149.556,103.689 142.167,103.868 135.098,100.461 L131.954,91.334 C136.318,93.217 140.82,94.172 145.323,94.172 C150.132,94.172 154.939,93.083 159.57,90.938 z M175.941,113.522 C168.212,112.369 162.318,108.171 158.809,101.325 L161.869,92.175 C166.624,100.573 174.246,106.13 183.756,108.124 z M183.094,134.413 L183.211,134.281 C177.748,129.4 175.413,123.226 176.367,116.328 L184.419,110.766 C183.429,119.615 186.266,127.83 192.616,134.374 z M166.225,148.289 C166.037,144.131 167.731,140.406 171.232,137.406 L180.598,137.444 C176.083,142.002 173.924,147.655 174.322,153.766 z M154.874,158.352 C157.252,154.352 160.974,151.843 165.754,151.018 L173.639,156.352 C166.917,157.841 161.48,161.667 157.957,167.388 z M139.133,159.192 C143.598,157.357 148.22,157.533 152.647,159.705 L155.686,168.61 C149.271,165.806 142.433,165.66 135.969,168.186 z M128.458,149.95 C132.291,151.222 135.189,153.892 136.958,157.809 L133.801,166.787 C130.867,161.264 126.237,157.427 120.388,155.647 z M122.465,137.343 C125.465,140.474 126.572,143.585 125.996,147.537 C125.948,147.53 125.904,147.515 125.856,147.509 L125.667,148.85 L117.845,154.37 C118.834,147.886 117.165,142.274 112.753,137.344 z M125.663,122.758 L125.86,124.125 C125.902,124.119 125.938,124.107 125.978,124.101 C126.534,128.076 125.554,131.459 122.95,134.532 L112.735,134.532 C117.166,129.493 118.846,123.759 117.855,117.131 z M136.949,113.623 C135.182,117.622 132.287,120.349 128.46,121.649 L120.372,115.821 C126.224,114.011 130.858,110.1 133.797,104.472 z M152.631,111.698 C148.214,113.91 143.601,114.085 139.148,112.219 L135.979,103.021 C139.035,104.239 142.174,104.856 145.312,104.856 C148.808,104.856 152.301,104.09 155.677,102.586 z M165.75,120.56 C160.976,119.715 157.26,117.154 154.883,113.07 L157.963,103.856 C161.491,109.688 166.931,113.586 173.655,115.101 z M171.245,134.461 C167.738,131.395 166.042,127.584 166.234,123.327 L174.311,117.748 C173.914,123.992 176.079,129.766 180.609,134.424 z M150.012,137.321 L168.738,137.396 C166.042,140.202 164.612,143.494 164.487,147.114 z M148.353,139.247 L163.722,149.643 C159.717,150.699 156.467,152.915 154.14,156.203 z M145.903,139.942 L151.862,157.405 C147.926,155.863 143.876,155.713 139.908,156.989 z M143.44,139.374 L137.775,155.488 C135.984,152.334 133.441,150.035 130.237,148.694 z M141.976,137.339 L127.799,147.345 C128.252,143.556 127.318,140.385 124.846,137.341 z M142.002,134.532 L125.172,134.532 C127.347,131.479 128.222,128.095 127.789,124.29 z M143.429,132.437 L130.228,122.923 C133.433,121.558 135.976,119.216 137.769,116.006 z M145.901,131.827 L139.915,114.446 C141.707,115.033 143.515,115.352 145.323,115.352 C147.51,115.352 149.693,114.912 151.842,114.057 z M148.365,132.567 L154.147,115.271 C156.476,118.62 159.729,120.877 163.738,121.951 z M149.985,134.549 L164.477,124.539 C164.603,128.239 166.043,131.603 168.751,134.472 z M288.787,135.911 C288.784,135.121 288.441,134.334 287.754,133.995 C272.666,126.559 261.481,113.728 257.068,98.79 C256.264,96.064 255.733,93.16 255.345,90.347 C254.956,87.524 254.835,84.672 254.984,81.826 C255.138,78.929 255.549,76.044 256.171,73.211 C256.798,70.359 257.651,67.557 258.727,64.842 C259.783,62.179 261.059,59.615 262.381,57.076 C262.813,56.243 262.527,54.407 261.273,54.584 C245.226,56.854 229.26,52.718 216.29,42.905 C203.02,32.867 194.463,18.206 192.121,1.573 C192.051,1.082 192.154,0.569 191.828,0.154 C191.386,-0.408 190.248,0.718 189.77,1.123 C189.473,1.375 189.175,1.627 188.876,1.878 C188.275,2.385 187.672,2.889 187.064,3.39 C185.824,4.412 184.569,5.418 183.287,6.388 C180.644,8.389 177.881,10.232 174.964,11.813 C172.079,13.377 169.059,14.685 165.96,15.765 C162.864,16.845 159.685,17.702 156.453,18.263 C153.155,18.835 149.822,19.057 146.482,19.191 C146.08,19.206 145.674,19.237 145.271,19.237 C128.487,19.237 112.695,12.688 100.805,0.799 C100.769,0.834 100.736,0.871 100.698,0.899 C99.716,0.212 98.512,0.788 98.512,1.964 C96.471,18.347 88.375,32.427 75.719,41.608 C62.983,50.846 46.965,54.188 30.61,51.012 C30.61,51.012 30.588,51.115 30.588,51.116 C30.603,50.465 29.771,50.792 29.663,51.228 C29.412,52.248 30.277,53.441 30.65,54.333 C30.966,55.09 31.28,55.847 31.592,56.606 C32.221,58.142 32.837,59.683 33.421,61.237 C34.6,64.376 35.632,67.573 36.345,70.851 C37.045,74.069 37.441,77.348 37.565,80.639 C37.688,83.903 37.553,87.181 37.099,90.416 C36.643,93.669 35.829,96.847 34.924,99.999 C34.814,100.377 34.72,100.764 34.595,101.138 C29.581,116.039 18.722,127.93 4.015,134.622 C3.214,134.986 2.417,135.356 1.617,135.725 C1.22,135.907 0.245,135.829 0.037,136.312 C-0.201,136.868 0.785,137.092 1.129,137.195 C1.676,137.361 2.192,137.628 2.716,137.861 C18.134,144.732 29.417,156.83 34.489,171.929 C39.327,186.328 37.865,201.853 30.401,215.714 C30.258,215.98 29.805,216.164 29.603,216.407 C29.158,216.943 28.949,217.94 29.089,218.608 C29.364,219.912 30.542,219.062 31.201,218.599 C31.412,218.451 31.82,218.021 32.08,217.979 C47.826,215.361 63.246,218.828 75.649,227.837 C78.223,229.707 80.667,231.791 82.87,234.086 C85.07,236.377 87.12,238.807 88.877,241.454 C90.664,244.141 92.196,246.847 93.557,249.774 C94.23,251.222 94.94,252.654 95.445,254.175 C95.96,255.723 96.345,257.313 96.868,258.862 C97.41,260.47 97.778,262.03 97.923,263.723 C98.051,265.211 98.101,266.85 99.332,267.885 C99.504,268.03 99.75,268.336 99.971,268.38 C100.34,268.454 100.713,267.999 100.949,267.768 C125.377,244.013 165.165,244.245 189.756,268.33 C190.132,268.698 190.912,268.94 191.409,268.726 C192.257,268.361 191.737,267.263 191.82,266.605 C194.125,250.987 202.322,237.14 214.998,227.549 C228.209,217.551 244.639,213.33 261.288,215.646 C262.16,215.766 263.198,214.353 262.721,213.567 C254.984,200.829 252.938,186.3 256.966,172.642 C261.318,157.881 272.535,145.205 287.739,137.867 C288.438,137.529 288.79,136.719 288.787,135.911" fill="#0B0B09" id="path5539"/>
    <path d="M209.305,58.674 L209.305,54.82 L211.001,56.235 C210.422,56.965 209.912,57.753 209.534,58.589 C209.534,58.589 209.451,58.618 209.305,58.674 M200.665,65.683 L195.484,61.303 C195.807,59.436 196.535,56.71 198.126,55.167 L199.633,54.126 C199.633,54.126 200.988,60.776 202.942,65.076 C202.402,65.171 201.508,65.361 200.665,65.683 M202.674,52.71 L204.026,62.192 C203.872,62.392 203.733,62.6 203.613,62.816 L201.865,53.085 C201.865,53.085 201.843,52.902 201.782,52.643 L202.347,52.253 C202.347,52.253 202.674,52.064 202.674,52.71 M236.331,66.778 C234.829,66.44 231.728,64.065 231.728,64.065 C231.301,63.763 230.897,63.358 230.517,62.884 L230.517,60.463 L227.903,57.957 C227.088,55.837 226.64,54.034 226.64,54.034 C226.065,53.623 224.561,53.135 223.363,52.788 C223.356,52.752 223.351,52.717 223.344,52.681 C223.344,52.681 223.441,48.363 217.868,50.739 C217.868,50.739 217.666,50.841 217.324,51.037 C216.278,50.739 213.621,50.311 213.618,53.602 C213.207,53.943 212.795,54.31 212.395,54.702 L209.651,52.71 C209.651,52.71 207.454,51.296 206.645,53.443 L207.246,59.632 C206.746,59.905 206.215,60.23 205.705,60.603 C205.444,58.53 204.687,52.957 204.371,52.338 C204.371,52.338 204.255,49.303 201.018,51.174 C200.598,50.837 199.983,50.805 199.09,51.582 L197.697,53.076 L196.738,53.625 C196.738,53.625 195.813,53.625 195.736,54.82 L195.631,55.293 L193.385,57.702 C193.385,57.702 193.076,58.482 193.385,58.945 C193.385,58.945 193.447,59.215 193.481,59.611 C193.481,59.611 192.613,58.984 190.84,60.294 L183.284,64.997 C183.284,64.997 182.513,65.266 182.013,66.23 C182.013,66.23 179.313,69.584 178.967,69.969 C178.62,70.355 178.312,70.906 177.926,71.073 C177.541,71.242 177.27,72.05 176.963,72.552 C176.655,73.053 176.462,73.285 176.384,73.516 C176.308,73.747 176.192,74.055 175.768,74.673 C175.344,75.289 175.42,75.482 175.035,75.906 C174.649,76.33 174.688,76.407 174.342,76.754 C173.996,77.101 172.453,78.45 173.996,77.872 C173.996,77.872 175.113,77.525 178.273,73.053 C178.273,73.053 182.899,68.737 183.323,67.541 L183.671,66.307 C183.671,66.307 190.956,62.759 192.227,61.373 C192.227,61.373 192.525,61.587 193.003,61.932 C192.781,62.241 192.467,62.497 192.021,62.645 C192.021,62.645 191.634,63.309 193.501,62.683 L193.659,62.405 C193.782,62.494 193.91,62.587 194.043,62.683 L193.808,65.536 L190.84,67.695 L191.842,67.888 L194.579,66.269 C194.579,66.269 195.341,66.196 195.246,63.554 C196.654,64.576 198.231,65.73 199.217,66.473 C198.62,66.965 198.312,67.605 198.666,68.428 L200.401,72.591 C200.401,72.591 202.196,74.248 204.401,72.244 C204.401,72.244 203.946,71.82 203.368,71.858 C203.368,71.858 201.862,72.359 201.459,70.548 C201.459,70.548 201.711,68.775 200.708,67.888 C200.708,67.888 200.648,67.509 200.798,67.137 C200.812,67.111 200.824,67.083 200.835,67.054 C201.022,66.675 201.453,66.335 202.421,66.445 C202.198,67.499 202.394,68.871 204.251,69.928 C204.251,69.928 203.96,69.687 204.542,68.669 C204.542,68.669 204.782,70.11 205.334,70.675 C205.327,70.747 205.323,70.822 205.318,70.901 C205.254,71.775 205.299,71.707 205.326,71.607 C205.303,71.831 205.334,72.441 205.334,72.866 C205.334,73.334 205.411,73.401 205.797,73.863 C206.183,74.325 206.144,74.017 206.645,74.094 C207.146,74.171 207.338,73.786 207.377,73.709 C207.416,73.632 207.647,73.208 207.559,72.866 C207.471,72.524 207.377,72.398 207.377,72.398 C207.377,72.398 207.571,71.473 207.559,71.073 C207.548,70.674 207.724,70.509 207.705,70.124 C207.688,69.738 207.801,69.545 207.695,69.115 C207.586,68.686 207.763,68.775 207.685,68.35 C207.61,67.926 207.724,68.004 207.685,67.541 C207.676,67.432 207.655,67.35 207.626,67.287 C207.766,67.164 207.916,67.042 208.079,66.924 C208.079,66.924 211.883,69.124 214.682,67.308 C214.606,67.496 214.478,67.657 214.354,67.926 C214.089,68.505 214.162,68.35 213.97,68.775 C213.777,69.198 213.854,69.237 213.854,69.777 C213.854,70.317 213.93,71.049 213.93,71.781 C213.93,72.513 213.545,74.017 213.545,74.017 C212.659,77.949 213.237,80.763 213.237,80.763 C213.66,80.879 213.854,80.056 213.854,80.056 C214.817,74.028 216.283,69.083 216.283,69.083 L215.985,66.112 C216.356,65.749 217.168,64.833 217.82,63.241 C217.82,63.241 219.14,63.04 220.521,62.077 C221.486,63.408 222.334,64.38 222.334,64.38 C222.141,65.652 223.221,71.859 223.221,71.859 C223.144,73.555 223.992,74.673 223.992,74.673 L229.351,79.767 C230.699,80.582 229.928,79.414 229.928,79.414 C227.422,77.178 225.149,73.516 225.149,73.516 L224.84,66.77 L224.57,64.187 C224.724,62.838 223.992,62.021 223.992,62.021 L222.542,59.882 C223.052,59 223.435,57.894 223.566,56.506 C223.793,56.655 224.046,56.821 224.329,57.008 C224.98,57.435 225.56,57.978 226.069,58.564 C226.833,59.568 227.366,60.463 227.366,60.463 C227.526,60.716 227.689,60.959 227.853,61.195 C228.426,62.257 228.718,63.062 228.718,63.062 L229.047,69.609 C233.504,73.404 235.149,72.836 235.149,72.836 C235.487,72.728 235.071,72.4 235.071,72.4 C230.613,70.219 230.517,69.153 230.517,69.153 L230.517,64.185 C233.294,66.64 235.895,67.263 235.895,67.263 C236.961,67.361 236.331,66.778 236.331,66.778" fill="#464443" id="path5541"/>
  </g>
</svg>
